<?xml version="1.0" standalone="no"?>
<!DOCTYPE svg PUBLIC "-//W3C//DTD SVG 20010904//EN"
 "http://www.w3.org/TR/2001/REC-SVG-20010904/DTD/svg10.dtd">
<svg version="1.0" xmlns="http://www.w3.org/2000/svg"
 width="512.000000pt" height="512.000000pt" viewBox="0 0 512.000000 512.000000"
 preserveAspectRatio="xMidYMid meet">

<g transform="translate(0.000000,512.000000) scale(0.100000,-0.100000)"
fill="#000000" stroke="none">
<path d="M344 4859 c-37 -19 -44 -53 -44 -204 l0 -145 -128 0 c-121 0 -130 -1
-150 -23 -12 -13 -22 -33 -22 -44 0 -67 36 -83 185 -83 l115 0 0 -55 0 -55
-125 0 c-120 0 -127 -1 -150 -25 l-25 -24 0 -425 c0 -233 3 -432 6 -441 13
-33 59 -45 179 -45 l115 0 0 -55 0 -55 -125 0 c-120 0 -127 -1 -150 -25 -32
-31 -32 -69 0 -100 23 -24 30 -25 150 -25 l125 0 0 -54 0 -54 -131 -4 c-123
-3 -132 -4 -150 -27 -18 -22 -19 -45 -19 -453 l0 -429 25 -24 c23 -24 30 -25
150 -25 l125 0 0 -826 0 -826 29 -29 30 -29 1901 2 1902 3 19 24 c26 32 24 73
-4 99 l-23 22 -1852 0 -1852 0 0 2160 0 2160 113 0 c106 0 115 2 135 23 27 29
28 67 3 98 -19 23 -24 24 -178 26 -97 2 -166 -2 -179 -8z m-44 -1089 l0 -330
-75 0 -75 0 0 330 0 330 75 0 75 0 0 -330z m0 -1330 l0 -330 -75 0 -75 0 0
330 0 330 75 0 75 0 0 -330z"/>
<path d="M954 4847 c-35 -31 -38 -82 -5 -109 22 -17 94 -18 2022 -18 l1999 0
0 -2160 0 -2160 -266 -2 -267 -3 -19 -26 c-28 -37 -17 -84 23 -105 25 -12 77
-14 335 -12 l306 3 19 24 c19 23 19 73 19 2281 0 2208 0 2258 -19 2281 l-19
24 -2050 3 -2051 2 -27 -23z"/>
<path d="M880 4540 c-11 -11 -20 -33 -20 -50 0 -30 -1 -30 -55 -30 -42 0 -60
-5 -75 -20 -20 -20 -20 -33 -20 -960 0 -927 0 -940 20 -960 15 -15 33 -20 70
-20 52 0 53 -1 64 -52 4 -17 18 -34 35 -43 53 -27 111 13 111 75 0 17 7 20 55
20 43 0 58 5 75 22 20 22 20 30 20 954 0 927 0 931 -21 958 -18 22 -28 26 -75
26 -50 0 -54 2 -54 24 0 13 -9 35 -21 50 -26 33 -79 36 -109 6z m130 -1060 l0
-830 -75 0 -75 0 0 830 0 830 75 0 75 0 0 -830z"/>
<path d="M1488 4543 c-9 -10 -19 -33 -23 -50 -6 -32 -8 -33 -59 -33 -41 0 -57
-5 -72 -21 -18 -20 -19 -53 -22 -954 -2 -932 -2 -932 19 -958 18 -23 28 -27
74 -27 54 0 54 0 61 -34 8 -43 36 -69 74 -69 39 0 68 27 72 67 3 30 4 31 59
34 103 5 94 -93 94 982 0 1075 9 977 -94 982 -54 3 -56 4 -59 33 -5 44 -29 65
-72 65 -23 0 -43 -7 -52 -17z m132 -1063 l0 -830 -80 0 -80 0 0 830 0 830 80
0 80 0 0 -830z"/>
<path d="M2314 4547 c-156 -59 -225 -237 -150 -385 70 -138 240 -190 377 -116
90 50 140 134 141 239 1 157 -117 276 -272 274 -36 0 -79 -6 -96 -12z m176
-164 c57 -51 56 -134 0 -188 -26 -25 -40 -30 -80 -30 -61 0 -100 27 -119 82
-18 51 -9 87 34 130 29 29 40 33 84 33 41 0 56 -5 81 -27z"/>
<path d="M3374 4539 c-14 -16 -20 -40 -23 -100 l-3 -79 -78 0 c-73 0 -80 -2
-99 -26 -17 -22 -21 -41 -21 -100 l0 -74 -75 0 c-67 0 -79 -3 -100 -25 -32
-31 -32 -69 0 -100 21 -22 33 -25 100 -25 l75 0 0 -60 0 -60 -75 0 c-67 0 -79
-3 -100 -25 -14 -13 -25 -36 -25 -50 0 -14 11 -37 25 -50 21 -22 33 -25 100
-25 l75 0 0 -60 0 -60 -79 0 c-74 0 -81 -2 -100 -26 -28 -35 -26 -69 4 -99 21
-22 33 -25 100 -25 l75 0 0 -60 0 -60 -79 0 c-74 0 -81 -2 -100 -26 -26 -33
-27 -65 -2 -95 17 -21 30 -24 100 -27 l81 -4 0 -75 c0 -65 3 -77 25 -98 21
-22 33 -25 98 -25 l75 0 4 -81 c3 -70 6 -83 27 -100 30 -25 76 -24 101 1 17
17 20 33 20 100 l0 80 59 0 59 0 4 -81 c3 -70 6 -83 27 -100 30 -25 72 -24 99
1 19 18 22 31 22 100 l0 80 60 0 60 0 0 -75 c0 -67 3 -79 25 -100 31 -32 74
-33 103 -2 19 20 22 35 22 100 l0 77 60 0 60 0 0 -75 c0 -67 3 -79 25 -100 31
-32 74 -33 103 -2 19 20 22 35 22 100 l0 77 74 0 c59 0 78 4 100 21 24 19 26
26 26 100 l0 79 74 0 c64 0 79 3 102 23 19 17 27 33 27 56 0 51 -22 65 -116
71 l-82 5 -3 58 -3 57 75 0 c64 0 79 3 102 23 35 31 38 82 5 109 -18 14 -40
18 -102 18 l-79 0 0 60 0 60 70 0 c38 0 80 5 94 11 35 16 50 63 31 99 -18 36
-31 40 -121 40 l-74 0 0 60 0 60 78 0 c83 1 105 10 121 51 11 30 -8 83 -34 93
-9 3 -50 6 -91 6 l-74 0 0 80 c0 67 -3 83 -20 100 -17 17 -33 20 -100 20 l-80
0 0 80 c0 94 -16 120 -74 120 -55 0 -76 -35 -76 -126 l0 -74 -60 0 -60 0 0 80
c0 94 -16 120 -74 120 -55 0 -76 -35 -76 -126 l0 -74 -60 0 -60 0 0 80 c0 94
-16 120 -74 120 -55 0 -76 -35 -76 -127 l0 -74 -57 3 -58 3 -5 83 c-4 68 -9
86 -24 98 -29 21 -80 18 -102 -7z m986 -859 l0 -530 -530 0 -530 0 0 530 0
530 530 0 530 0 0 -530z"/>
<path d="M3492 4048 c-39 -19 -44 -64 -40 -391 l3 -309 29 -24 28 -25 330 3
330 3 19 24 c18 22 19 43 19 353 l0 329 -25 24 -24 25 -323 -1 c-211 0 -331
-4 -346 -11z m568 -368 l0 -230 -227 2 -228 3 -3 215 c-1 118 0 220 2 227 4
10 57 13 231 13 l225 0 0 -230z"/>
<path d="M2322 3882 c-70 -25 -118 -66 -156 -132 -26 -46 -30 -65 -31 -125 0
-119 62 -215 172 -262 49 -21 156 -20 206 1 58 25 122 90 147 148 93 217 -118
448 -338 370z m154 -157 c88 -57 68 -196 -32 -224 -105 -29 -198 84 -146 178
36 66 116 87 178 46z"/>
<path d="M2310 3213 c-27 -10 -65 -37 -96 -68 -108 -107 -111 -259 -9 -373 63
-70 127 -96 221 -90 151 10 257 123 256 274 -1 112 -55 197 -157 245 -69 33
-142 37 -215 12z m165 -153 c82 -51 73 -184 -15 -220 -47 -20 -110 -7 -142 29
-97 109 33 268 157 191z"/>
<path d="M3394 2499 c-17 -19 -19 -42 -22 -272 -2 -139 0 -262 3 -275 14 -58
81 -81 123 -42 22 20 22 26 22 295 0 262 -1 276 -20 295 -27 27 -81 26 -106
-1z"/>
<path d="M3660 2500 c-19 -19 -20 -33 -20 -293 0 -273 0 -274 23 -295 29 -27
67 -28 98 -3 l24 19 0 275 c0 256 -1 276 -19 296 -25 27 -79 28 -106 1z"/>
<path d="M3920 2498 c-19 -21 -20 -34 -20 -290 l0 -269 25 -24 c13 -14 36 -25
50 -25 14 0 37 11 50 25 l25 24 0 264 c0 252 -1 266 -21 291 -27 34 -79 36
-109 4z"/>
<path d="M4181 2494 c-20 -25 -21 -39 -21 -291 l0 -264 25 -24 c31 -32 74 -33
103 -2 21 23 22 30 22 295 0 259 -1 273 -20 292 -30 30 -83 27 -109 -6z"/>
<path d="M2161 2454 c-20 -25 -21 -39 -21 -251 l0 -224 25 -24 24 -25 481 0
481 0 24 25 25 24 0 229 c0 226 0 229 -23 250 -23 22 -24 22 -509 22 l-487 0
-20 -26z m889 -249 l0 -125 -380 0 -380 0 0 125 0 125 380 0 380 0 0 -125z"/>
<path d="M732 2177 c-31 -33 -29 -80 4 -106 20 -16 41 -21 85 -21 31 0 65 3
74 6 24 10 46 60 39 89 -10 40 -41 55 -114 55 -57 0 -70 -3 -88 -23z"/>
<path d="M1113 2185 c-29 -20 -37 -59 -19 -94 20 -38 31 -41 147 -41 93 0 102
2 124 25 32 31 32 69 0 100 -22 23 -31 25 -127 25 -75 0 -109 -4 -125 -15z"/>
<path d="M1562 2177 c-31 -33 -29 -80 4 -106 21 -16 41 -21 88 -21 64 1 85 10
105 48 10 19 10 30 0 53 -16 40 -36 49 -112 49 -53 0 -67 -4 -85 -23z"/>
<path d="M736 1919 c-34 -27 -36 -79 -4 -109 17 -16 35 -20 86 -20 73 0 99 11
113 47 13 35 -4 77 -37 92 -42 19 -128 14 -158 -10z"/>
<path d="M1123 1928 c-48 -23 -51 -103 -4 -127 11 -6 67 -11 125 -11 101 0
105 1 125 26 28 35 26 69 -4 99 -22 23 -31 25 -122 24 -54 0 -108 -5 -120 -11z"/>
<path d="M1566 1919 c-33 -26 -36 -79 -6 -109 28 -28 147 -29 181 -2 33 27 30
78 -5 109 -37 32 -131 33 -170 2z"/>
<path d="M730 1590 c-19 -19 -20 -33 -20 -505 0 -472 1 -486 20 -505 19 -19
33 -20 255 -20 222 0 236 1 255 20 19 19 20 33 20 505 0 472 -1 486 -20 505
-19 19 -33 20 -255 20 -222 0 -236 -1 -255 -20z m380 -505 l0 -375 -125 0
-125 0 0 375 0 375 125 0 125 0 0 -375z"/>
<path d="M1454 1589 c-18 -20 -19 -43 -19 -504 0 -461 1 -484 19 -504 18 -20
28 -21 257 -21 l238 0 20 26 c21 26 21 36 21 499 0 463 0 473 -21 499 l-20 26
-238 0 c-229 0 -239 -1 -257 -21z m386 -504 l0 -375 -130 0 -130 0 0 375 0
375 130 0 130 0 0 -375z"/>
<path d="M2567 1592 c-9 -10 -17 -40 -19 -72 l-3 -55 -81 -3 c-88 -3 -106 -13
-119 -64 -6 -22 -1 -33 23 -58 29 -28 35 -30 106 -30 l76 0 0 -54 c0 -47 4
-57 26 -75 27 -21 31 -21 954 -21 923 0 927 0 954 21 22 18 26 28 26 75 l0 54
74 0 c64 0 79 3 102 23 19 17 27 33 27 56 0 51 -22 65 -116 71 l-82 5 -5 56
c-9 98 94 89 -980 89 -892 0 -948 -1 -963 -18z m1793 -207 l0 -75 -830 0 -830
0 0 75 0 75 830 0 830 0 0 -75z"/>
<path d="M2576 989 c-22 -18 -26 -28 -26 -75 l0 -54 -76 0 c-71 0 -77 -2 -106
-30 -24 -25 -29 -36 -23 -58 11 -47 29 -57 118 -62 l82 -5 3 -55 c6 -99 -95
-90 977 -90 792 0 944 2 960 14 14 10 21 31 25 73 l5 58 82 5 c94 6 116 20
116 71 0 23 -8 39 -27 56 -23 20 -38 23 -102 23 l-74 0 0 54 c0 47 -4 57 -26
75 -27 21 -31 21 -954 21 -923 0 -927 0 -954 -21z m1784 -204 l0 -75 -830 0
-830 0 0 75 0 75 830 0 830 0 0 -75z"/>
</g>
</svg>
